<svg width="220" height="220" viewBox="0 0 220 220" fill="none" xmlns="http://www.w3.org/2000/svg">
<g clip-path="url(#clip0_215_8)">
<g clip-path="url(#clip1_215_8)">
<path d="M110 220C170.751 220 220 170.751 220 110C220 49.2487 170.751 0 110 0C49.2487 0 0 49.2487 0 110C0 170.751 49.2487 220 110 220Z" fill="#9391F7" style="fill:#9391F7;fill:color(display-p3 0.5765 0.5686 0.9686);fill-opacity:1;"/>
<path d="M89.5504 115.365C98.9827 113.834 105.388 104.946 103.857 95.5134C102.326 86.0809 93.4376 79.6755 84.0055 81.2066C74.573 82.7378 68.1676 91.6253 69.6987 101.058C71.2298 110.491 80.1176 116.896 89.5504 115.365Z" fill="white" style="fill:white;fill-opacity:1;"/>
<path d="M134.774 115.365C144.206 113.834 150.612 104.946 149.08 95.5134C147.55 86.0809 138.661 79.6755 129.229 81.2066C119.797 82.7378 113.391 91.6253 114.922 101.058C116.454 110.491 125.341 116.896 134.774 115.365Z" fill="white" style="fill:white;fill-opacity:1;"/>
<path d="M109.361 26.8604C62.3801 26.8604 24.2904 65.6755 24.3027 113.541H46.0325C46.0325 77.6698 74.1612 48.586 109.361 48.586C144.561 48.586 172.69 77.6698 172.69 113.541H194.419C194.427 65.6755 156.338 26.8604 109.361 26.8604Z" fill="white" style="fill:white;fill-opacity:1;"/>
</g>
</g>
<defs>
<clipPath id="clip0_215_8">
<rect width="220" height="220" fill="white" style="fill:white;fill-opacity:1;"/>
</clipPath>
<clipPath id="clip1_215_8">
<rect width="220" height="220" fill="white" style="fill:white;fill-opacity:1;"/>
</clipPath>
</defs>
</svg>
